Coordinates
version=1
nRows=26
nColumns=24
inDegrees=yes

Units are S.I. units (second, meters, Newtons, ...)
Angles are in degrees.

endheader
time	pelvis_tilt	pelvis_list	pelvis_rotation	pelvis_tx	pelvis_ty	pelvis_tz	hip_flexion_r	hip_adduction_r	hip_rotation_r	knee_angle_r	ankle_angle_r	subtalar_angle_r	mtp_angle_r	hip_flexion_l	hip_adduction_l	hip_rotation_l	knee_angle_l	ankle_angle_l	subtalar_angle_l	mtp_angle_l	lumbar_extension	lumbar_bending	lumbar_rotation
      1.50000000	      6.19186389	     -0.14891578	     -3.39584001	      0.60040846	      1.03684079	      0.00413071	      5.65309338	     -6.64477790	     -5.72846236	    -68.66255257	     -3.33644668	     -0.00000741	      0.00000000	      6.67728208	      2.28884879	     -3.39561325	    -16.71875433	      2.59580218	     -0.00000168	      0.00000000	    -15.65822587	     -4.20216953	     -1.80464621
      1.51700000	      6.22818749	     -0.48865098	     -2.72171176	      0.59908915	      1.03948926	      0.00168337	      7.86291697	     -6.15713573	     -6.10769464	    -69.60984708	     -1.52896424	     -0.00000755	      0.00000000	      4.96405296	      2.18526227	     -2.61030432	    -15.58199399	      3.03426655	     -0.00000152	      0.00000000	    -15.74773285	     -3.55957571	     -2.65049029
      1.53300000	      6.26263279	     -0.79263460	     -2.16648957	      0.59786969	      1.04181509	     -0.00063823	      9.95255792	     -5.59452072	     -6.27544522	    -69.76038599	     -0.16693675	     -0.00000732	      0.00000000	      3.16063188	      2.07886418	     -1.99074879	    -14.26098655	      3.38312021	     -0.00000149	      0.00000000	    -15.83746478	     -3.00728160	     -3.59021538
      1.55000000	      6.07556413	     -0.88557332	     -1.76496710	      0.59551154	      1.04292611	     -0.00253422	     12.35136419	     -5.20847015	     -6.28447968	    -69.41086450	      0.82166335	     -0.00000657	      0.00000000	      1.82736014	      2.13215021	     -1.57801741	    -13.26154752	      3.79731844	     -0.00000133	      0.00000000	    -15.78952016	     -2.73669427	     -4.10272759
      1.56700000	      6.08516610	     -1.29951249	     -0.97642347	      0.59415039	      1.04434673	     -0.00452004	     14.02876763	     -4.53542068	     -6.80172600	    -67.93018991	      1.41754961	     -0.00000590	      0.00000000	      0.16859745	      1.80534694	     -0.75783240	    -12.13534540	      4.24629327	     -0.00000114	      0.00000000	    -15.85610818	     -2.03088880	     -4.89650516
      1.58300000	      6.02440621	     -1.50701983	     -0.50261365	      0.59214100	      1.04496086	     -0.00601237	     15.76961814	     -4.07904434	     -7.04219887	    -65.90859423	      1.81842380	     -0.00000498	      0.00000000	     -1.28413764	      1.65390223	     -0.24091007	    -11.20131203	      4.74036116	     -0.00000093	      0.00000000	    -15.91687071	     -1.63824264	     -5.48783110
      1.60000000	      6.00231193	     -1.73007695	     -0.24141184	      0.59096029	      1.04536028	     -0.00719392	     17.17896563	     -3.57484574	     -7.12389545	    -63.09059828	      2.09307997	     -0.00000437	      0.00000000	     -2.99343807	      1.46658633	      0.08137368	     -9.93715666	      5.12842225	     -0.00000078	      0.00000000	    -15.97001792	     -1.22210680	     -5.71546940
      1.61700000	      5.89912888	     -1.70166212	      0.12804469	      0.58807359	      1.04494416	     -0.00841815	     18.55349050	     -3.48791973	     -7.45580527	    -59.70543026	      2.34502282	     -0.00000413	      0.00000000	     -4.36053529	      1.51755273	      0.58714584	     -8.94483219	      5.50149441	     -0.00000078	      0.00000000	    -16.15306438	     -1.10574674	     -5.95226387
      1.63300000	      5.52142818	     -1.74343072	      0.27225317	      0.58602891	      1.04350002	     -0.00930600	     19.91714710	     -3.37438434	     -7.85852919	    -55.63813710	      2.56494483	     -0.00000428	      0.00000000	     -5.39334206	      1.50579542	      0.81332405	     -8.18623599	      6.10487715	     -0.00000061	      0.00000000	    -15.78655964	     -0.90474828	     -6.09402272
      1.65000000	      5.37750380	     -1.49007504	      0.21507911	      0.58366839	      1.04191330	     -0.01013391	     20.78405920	     -3.58440910	     -8.23841765	    -50.92926024	      2.74681488	     -0.00000483	      0.00000000	     -6.76271576	      1.83597619	      0.78747153	     -7.22245398	      6.56507234	     -0.00000046	      0.00000000	    -15.79712976	     -1.03248680	     -6.16304865
      1.66700000	      5.36002278	     -1.38490820	      0.28723026	      0.58214878	      1.04032989	     -0.01053700	     21.02286820	     -3.69170992	     -9.18062539	    -45.38702919	      2.68373206	     -0.00000553	      0.00000000	     -8.35608718	      1.94347515	      0.84435164	     -6.17552595	      7.02484685	     -0.00000023	      0.00000000	    -15.94168383	     -1.01266049	     -6.15875577
      1.68300000	      5.15269989	     -0.97649833	      0.20864237	      0.58023931	      1.03756301	     -0.01108745	     21.40481962	     -4.01950462	     -9.96739647	    -39.61357916	      2.48544283	     -0.00000589	      0.00000000	     -9.52078966	      2.41011760	      0.85439769	     -5.58940220	      7.72686975	      0.00000006	      0.00000000	    -15.87752270	     -1.31522587	     -6.19907343
      1.70000000	      4.84064018	     -0.65586923	      0.17830949	      0.57922859	      1.03441603	     -0.01114633	     21.50016910	     -4.07780588	    -10.77385070	    -33.25295484	      2.17107969	     -0.00000581	      0.00000000	    -10.71632621	      2.73502289	      0.92629735	     -4.83318448	      8.39450584	      0.00000023	      0.00000000	    -15.58945950	     -1.54395539	     -6.28651693
      1.71700000	      4.94856201	     -0.15046773	      0.13093039	      0.57783383	      1.03169054	     -0.01099170	     20.98283409	     -4.11871853	    -11.05587601	    -26.62949748	      1.75522200	     -0.00000517	      0.00000000	    -12.29402932	      3.26411680	      1.03675176	     -4.17917319	      9.01801801	      0.00000028	      0.00000000	    -15.88458318	     -2.01487179	     -6.27619925
      1.73300000	      4.79414793	      0.38022216	      0.05763188	      0.57670757	      1.02800425	     -0.01087500	     20.63540590	     -4.05795352	    -10.64911422	    -20.03341734	      1.40723631	     -0.00000419	      0.00000000	    -13.65076828	      3.84890598	      1.15666082	     -3.45563454	      9.66346906	      0.00000006	      0.00000000	    -15.84121632	     -2.44986443	     -6.18166969
      1.75000000	      4.65391377	      0.95406423	      0.02661157	      0.57629729	      1.02410635	     -0.01052488	     20.14328576	     -4.03333933	     -9.59488062	    -13.68146195	      1.17451748	     -0.00000305	      0.00000000	    -15.01572015	      4.43911350	      1.41009852	     -2.84589969	     10.31937987	     -0.00000008	      0.00000000	    -15.68568112	     -2.92528048	     -6.50524851
      1.76700000	      4.61626329	      1.49889464	      0.08954449	      0.57625738	      1.02016388	     -0.00992475	     19.52824627	     -4.08266193	     -8.14301278	     -8.03396955	      1.13789366	     -0.00000206	      0.00000000	    -16.46367987	      4.91378630	      1.81259579	     -2.34146811	     10.94901467	     -0.00000011	      0.00000000	    -15.65903594	     -3.35979478	     -6.71760020
      1.78300000	      4.60853062	      1.93066533	      0.34519097	      0.57671113	      1.01625031	     -0.00954101	     18.93827807	     -4.21876478	     -6.71405621	     -3.48994256	      1.40269010	     -0.00000136	      0.00000000	    -17.96787736	      5.17863464	      2.44645143	     -1.85710926	     11.51109926	     -0.00000010	      0.00000000	    -15.57374181	     -3.58734683	     -7.21990119
      1.80000000	      4.56202930	      2.30224601	      0.51220235	      0.57703911	      1.01254672	     -0.00888613	     18.65463476	     -4.36961578	     -5.31561763	     -0.41641582	      1.74714219	     -0.00000096	      0.00000000	    -19.18487266	      5.37054375	      3.01569703	     -1.85048854	     12.13495875	      0.00000017	      0.00000000	    -15.47416904	     -3.76938871	     -7.55812644
      1.81700000	      4.60940333	      2.63450653	      0.83729299	      0.57732519	      1.00960185	     -0.00826381	     18.60704665	     -4.58928136	     -4.37409526	      0.84682661	      2.11390931	     -0.00000080	      0.00000000	    -20.20616308	      5.44594437	      3.72766924	     -2.42922261	     12.79623973	      0.00000056	      0.00000000	    -15.58905825	     -3.87565567	     -7.89828594
      1.83300000	      4.70938826	      2.53322209	      1.27880683	      0.57791846	      1.00737890	     -0.00758506	     18.64266960	     -4.39563572	     -4.07643339	      0.67291417	      2.05854945	     -0.00000072	      0.00000000	    -21.17311880	      5.02208868	      4.43294830	     -3.22794633	     13.41300657	      0.00000083	      0.00000000	    -15.69575344	     -3.36937613	     -8.35381189
      1.85000000	      4.65643832	      2.37727573	      1.45289060	      0.57938124	      1.00555379	     -0.00585979	     19.26720537	     -4.03465774	     -3.73590422	     -1.28347599	      1.81965156	     -0.00000104	      0.00000000	    -21.81018562	      4.60460695	      4.79096782	     -4.41630769	     13.89882406	      0.00000126	      0.00000000	    -15.55320190	     -3.03548251	     -8.40507369
      1.86700000	      4.71485721	      2.06955604	      1.56508359	      0.58078537	      1.00432682	     -0.00395876	     19.92174065	     -3.49666260	     -3.62950192	     -4.14245022	      1.05289676	     -0.00000148	      0.00000000	    -22.30834837	      4.07445548	      4.96032759	     -6.07707281	     14.29160753	      0.00000170	      0.00000000	    -15.55222993	     -2.36278474	     -8.52759070
      1.88300000	      4.54539291	      1.84780050	      1.96690318	      0.58361001	      1.00340191	     -0.00252118	     20.61958467	     -3.18698748	     -3.87916665	     -7.19833092	      0.02637710	     -0.00000199	      0.00000000	    -22.55433813	      3.54290172	      5.38755176	     -7.83663448	     14.27697585	      0.00000207	      0.00000000	    -15.13765999	     -1.76760452	     -8.85508894
      1.90000000	      4.32964822	      1.66562141	      2.26151778	      0.58691174	      1.00290589	     -0.00050990	     21.28683271	     -2.91061082	     -4.01452269	    -10.28711013	     -1.04217231	     -0.00000235	      0.00000000	    -22.48269360	      3.09226546	      5.72031155	    -10.10921830	     14.02583836	      0.00000251	      0.00000000	    -14.58389353	     -1.23145529	     -8.86342442
      1.91700000	      4.46195499	      1.50518059	      2.59913909	      0.59027002	      1.00362344	      0.00137401	     21.60765400	     -2.72626184	     -4.17197650	    -13.61412534	     -1.68139490	     -0.00000271	      0.00000000	    -22.41639506	      2.66966707	      6.12223483	    -12.98554935	     13.43332254	      0.00000311	      0.00000000	    -14.47001896	     -0.61481539	     -9.09742172
